ply
format ascii 1.0
comment Created by Blender 2.79 (sub 0) - www.blender.org, source file: ''
element vertex 24
property float x
property float y
property float z
property float nx
property float ny
property float nz
property uchar red
property uchar green
property uchar blue
element face 6
property list uchar uint vertex_indices
end_header
1.949584 1.949584 0.207967 0.000000 0.000000 -1.000000 72 71 77
1.949584 -1.949584 0.207967 0.000000 0.000000 -1.000000 72 71 77
-1.949585 -1.949584 0.207967 0.000000 0.000000 -1.000000 72 71 77
-1.949584 1.949585 0.207967 0.000000 0.000000 -1.000000 72 71 77
1.949585 1.949583 -0.213868 0.000000 -0.000000 1.000000 76 75 81
-1.949584 1.949584 -0.213868 0.000000 -0.000000 1.000000 72 71 77
-1.949585 -1.949584 -0.213868 0.000000 -0.000000 1.000000 72 71 77
1.949583 -1.949586 -0.213868 0.000000 -0.000000 1.000000 72 71 77
1.949584 1.949584 0.207967 -1.000000 0.000000 0.000000 72 71 77
1.949585 1.949583 -0.213868 -1.000000 0.000000 0.000000 72 71 77
1.949583 -1.949586 -0.213868 -1.000000 0.000000 0.000000 72 71 77
1.949584 -1.949584 0.207967 -1.000000 0.000000 0.000000 72 71 77
1.949584 -1.949584 0.207967 0.000000 1.000000 -0.000001 71 71 75
1.949583 -1.949586 -0.213868 0.000000 1.000000 -0.000001 72 71 77
-1.949585 -1.949584 -0.213868 0.000000 1.000000 -0.000001 72 71 77
-1.949585 -1.949584 0.207967 0.000000 1.000000 -0.000001 68 70 73
-1.949585 -1.949584 0.207967 1.000000 -0.000000 -0.000001 72 71 77
-1.949585 -1.949584 -0.213868 1.000000 -0.000000 -0.000001 72 71 77
-1.949584 1.949584 -0.213868 1.000000 -0.000000 -0.000001 72 71 77
-1.949584 1.949585 0.207967 1.000000 -0.000000 -0.000001 72 71 77
1.949585 1.949583 -0.213868 -0.000000 -1.000000 0.000002 72 71 77
1.949584 1.949584 0.207967 -0.000000 -1.000000 0.000002 72 71 77
-1.949584 1.949585 0.207967 -0.000000 -1.000000 0.000002 72 71 77
-1.949584 1.949584 -0.213868 -0.000000 -1.000000 0.000002 72 71 77
4 0 1 2 3
4 4 5 6 7
4 8 9 10 11
4 12 13 14 15
4 16 17 18 19
4 20 21 22 23
