ply
format ascii 1.0
comment Created by Blender 2.79 (sub 0) - www.blender.org, source file: ''
element vertex 24
property float x
property float y
property float z
property float nx
property float ny
property float nz
property uchar red
property uchar green
property uchar blue
element face 6
property list uchar uint vertex_indices
end_header
1.999381 1.999381 0.020353 0.000000 0.000000 -1.000000 151 151 151
1.999381 -1.999381 0.020353 0.000000 0.000000 -1.000000 153 153 153
-1.999381 -1.999380 0.020353 0.000000 0.000000 -1.000000 138 138 138
-1.999380 1.999382 0.020353 0.000000 0.000000 -1.000000 138 138 138
1.999382 1.999380 -0.022743 0.000000 -0.000000 1.000000 255 255 255
-1.999381 1.999381 -0.022743 0.000000 -0.000000 1.000000 255 255 255
-1.999382 -1.999380 -0.022743 0.000000 -0.000000 1.000000 255 255 255
1.999380 -1.999382 -0.022743 0.000000 -0.000000 1.000000 255 255 255
1.999381 1.999381 0.020353 -1.000000 0.000000 0.000004 151 151 151
1.999382 1.999380 -0.022743 -1.000000 0.000000 0.000004 144 144 144
1.999380 -1.999382 -0.022743 -1.000000 0.000000 0.000004 188 188 188
1.999381 -1.999381 0.020353 -1.000000 0.000000 0.000004 153 153 153
1.999381 -1.999381 0.020353 0.000000 1.000000 -0.000010 153 153 153
1.999380 -1.999382 -0.022743 0.000000 1.000000 -0.000010 188 188 188
-1.999382 -1.999380 -0.022743 0.000000 1.000000 -0.000010 138 138 138
-1.999381 -1.999380 0.020353 0.000000 1.000000 -0.000010 138 138 138
-1.999381 -1.999380 0.020353 1.000000 -0.000000 -0.000012 255 255 255
-1.999382 -1.999380 -0.022743 1.000000 -0.000000 -0.000012 255 255 255
-1.999381 1.999381 -0.022743 1.000000 -0.000000 -0.000012 255 255 255
-1.999380 1.999382 0.020353 1.000000 -0.000000 -0.000012 255 255 255
1.999382 1.999380 -0.022743 -0.000000 -1.000000 0.000019 255 255 255
1.999381 1.999381 0.020353 -0.000000 -1.000000 0.000019 255 255 255
-1.999380 1.999382 0.020353 -0.000000 -1.000000 0.000019 255 255 255
-1.999381 1.999381 -0.022743 -0.000000 -1.000000 0.000019 255 255 255
4 0 1 2 3
4 4 5 6 7
4 8 9 10 11
4 12 13 14 15
4 16 17 18 19
4 20 21 22 23
