ply
format ascii 1.0
comment Created by Blender 2.79 (sub 0) - www.blender.org, source file: ''
element vertex 24
property float x
property float y
property float z
property float nx
property float ny
property float nz
property uchar red
property uchar green
property uchar blue
element face 6
property list uchar uint vertex_indices
end_header
0.102488 0.416467 0.151126 0.000000 0.000000 -1.000000 77 77 77
0.102488 -0.416467 0.151126 0.000000 0.000000 -1.000000 77 77 77
-0.669171 -0.416467 0.151126 0.000000 0.000000 -1.000000 77 77 77
-0.669170 0.416467 0.151126 0.000000 0.000000 -1.000000 77 77 77
0.102488 0.416467 0.005409 0.000000 -0.000000 1.000000 255 255 255
-0.669170 0.416467 0.005409 0.000000 -0.000000 1.000000 255 255 255
-0.669171 -0.416467 0.005409 0.000000 -0.000000 1.000000 255 255 255
0.102488 -0.416467 0.005409 0.000000 -0.000000 1.000000 255 255 255
0.102488 0.416467 0.151126 -1.000000 0.000000 -0.000002 77 77 77
0.102488 0.416467 0.005409 -1.000000 0.000000 -0.000002 77 77 77
0.102488 -0.416467 0.005409 -1.000000 0.000000 -0.000002 77 77 77
0.102488 -0.416467 0.151126 -1.000000 0.000000 -0.000002 77 77 77
0.102488 -0.416467 0.151126 0.000000 1.000000 -0.000002 77 77 77
0.102488 -0.416467 0.005409 0.000000 1.000000 -0.000002 77 77 77
-0.669171 -0.416467 0.005409 0.000000 1.000000 -0.000002 77 77 77
-0.669171 -0.416467 0.151126 0.000000 1.000000 -0.000002 77 77 77
-0.669171 -0.416467 0.151126 1.000000 -0.000001 0.000000 77 77 77
-0.669171 -0.416467 0.005409 1.000000 -0.000001 0.000000 77 77 77
-0.669170 0.416467 0.005409 1.000000 -0.000001 0.000000 77 77 77
-0.669170 0.416467 0.151126 1.000000 -0.000001 0.000000 78 78 78
0.102488 0.416467 0.005409 -0.000000 -1.000000 0.000002 77 77 77
0.102488 0.416467 0.151126 -0.000000 -1.000000 0.000002 87 87 87
-0.669170 0.416467 0.151126 -0.000000 -1.000000 0.000002 117 117 117
-0.669170 0.416467 0.005409 -0.000000 -1.000000 0.000002 77 77 77
4 0 1 2 3
4 4 5 6 7
4 8 9 10 11
4 12 13 14 15
4 16 17 18 19
4 20 21 22 23
